<svg width="16" height="26" viewBox="0 0 16 26" fill="none" xmlns="http://www.w3.org/2000/svg">
<path d="M15.3035 2.09413C15.1738 1.78145 14.9837 1.49742 14.7441 1.25828C13.7396 0.253949 12.0898 0.247501 11.0997 1.23762L1.53755 10.7998C1.29788 11.0389 1.10773 11.323 0.977999 11.6358C0.848262 11.9486 0.781485 12.2838 0.781485 12.6224C0.781485 12.961 0.848262 13.2963 0.977999 13.609C1.10767 13.9216 1.29769 14.2056 1.53719 14.4447L15.3035 2.09413ZM15.3035 2.09413C15.4332 2.40688 15.5 2.74216 15.5 3.08075C15.5 3.41935 15.4332 3.75463 15.3035 4.06738C15.1738 4.37998 14.9838 4.66395 14.7443 4.90306C14.7443 4.90308 14.7442 4.90311 14.7442 4.90314C14.7441 4.90323 14.744 4.90333 14.7439 4.90342L7.01452 12.6328L14.7443 20.3626C15.2276 20.8459 15.4991 21.5014 15.4991 22.1849C15.4991 22.8684 15.2276 23.5239 14.7443 24.0072C14.261 24.4905 13.6055 24.762 12.922 24.762C12.2385 24.762 11.583 24.4905 11.0997 24.0072L1.53755 14.4451L15.3035 2.09413Z" fill="#162641" stroke="#162641"/>
</svg>
