<svg width="113" height="97" viewBox="0 0 113 97" fill="none" xmlns="http://www.w3.org/2000/svg">
<path d="M79.91 47.5101L59.39 11.3901L38.86 47.5101H59.88" stroke="#FCC157" stroke-width="2" stroke-miterlimit="10"/>
<path d="M60.16 47.51L43.65 18.46" stroke="#162640" stroke-width="2" stroke-miterlimit="10"/>
<path d="M53.47 1L26.97 47.63" stroke="#162640" stroke-width="2" stroke-miterlimit="10"/>
<path d="M53.32 61.06C70.7501 61.06 84.88 47.6151 84.88 31.03C84.88 14.4449 70.7501 1 53.32 1C35.8899 1 21.76 14.4449 21.76 31.03C21.76 47.6151 35.8899 61.06 53.32 61.06Z" stroke="#16263F" stroke-width="2" stroke-miterlimit="10"/>
<path d="M110.51 96.8498C110.154 96.8187 109.814 96.6844 109.533 96.4634C109.252 96.2424 109.041 95.9442 108.927 95.6054C108.812 95.2665 108.799 94.9016 108.889 94.5554C108.979 94.2092 109.167 93.8966 109.432 93.6559C109.696 93.4152 110.025 93.2568 110.378 93.2C110.731 93.1433 111.093 93.1907 111.42 93.3365C111.747 93.4823 112.024 93.7201 112.217 94.0208C112.411 94.3215 112.513 94.6721 112.51 95.0298C112.477 95.5329 112.25 96.0034 111.877 96.3428C111.504 96.6821 111.014 96.8638 110.51 96.8498ZM110.51 94.0298C110.318 94.0491 110.135 94.1238 109.984 94.2447C109.834 94.3657 109.721 94.5278 109.66 94.7113C109.6 94.8949 109.594 95.0921 109.643 95.279C109.692 95.466 109.794 95.6347 109.937 95.7647C110.08 95.8947 110.258 95.9805 110.449 96.0117C110.64 96.0429 110.835 96.0181 111.012 95.9403C111.189 95.8625 111.34 95.7352 111.446 95.5736C111.552 95.412 111.609 95.2231 111.61 95.0298C111.606 94.8897 111.575 94.7518 111.517 94.624C111.46 94.4962 111.377 94.3811 111.275 94.2853C111.173 94.1895 111.052 94.1149 110.921 94.0659C110.79 94.0169 110.65 93.9944 110.51 93.9998V94.0298Z" fill="#1D1D1B"/>
<path d="M24.15 77.8498L24.29 81.3098L24.12 80.8698C24.363 80.1895 24.768 79.5785 25.3 79.0898C25.8175 78.5954 26.4252 78.205 27.09 77.9398C27.694 77.6804 28.3427 77.5411 29 77.5298L28.95 78.8598C28.131 78.8479 27.3225 79.044 26.6 79.4298C25.9208 79.8016 25.349 80.3424 24.94 80.9998C24.5212 81.6449 24.3052 82.4008 24.32 83.1698V89.1698H22.97V77.8498H24.15Z" fill="#1D1D1B"/>
<path d="M33.0699 72.8901H34.4499V78.0001H37.9299V79.1001H34.4499V89.1001H33.0699V79.1001H30.6899V78.0001H33.0699V72.8901Z" fill="#1D1D1B"/>
<path d="M43.94 89.3498C43.2583 89.3376 42.5831 89.2161 41.94 88.9898C41.2632 88.7736 40.6627 88.3675 40.21 87.8199L40.85 86.9299C41.2326 87.35 41.6949 87.6899 42.21 87.9299C42.7373 88.1701 43.3105 88.293 43.89 88.2899C44.3141 88.2942 44.7362 88.2301 45.14 88.0998C45.5463 87.9898 45.9019 87.7423 46.1462 87.3995C46.3905 87.0567 46.5085 86.6398 46.48 86.2199C46.4949 85.9933 46.4626 85.7661 46.3851 85.5526C46.3077 85.3392 46.1867 85.1441 46.03 84.9799C45.7083 84.6701 45.3274 84.4285 44.91 84.2698C44.46 84.0898 43.99 83.9198 43.49 83.7698C42.7576 83.5378 42.0781 83.1641 41.49 82.6698C41.2166 82.4171 41.0037 82.1062 40.8669 81.7599C40.7302 81.4137 40.6731 81.0411 40.7 80.6698C40.6881 80.1006 40.8446 79.5405 41.15 79.0598C41.4328 78.6111 41.8296 78.2453 42.3 77.9999C42.8445 77.7339 43.4441 77.6003 44.05 77.6099C44.6516 77.6118 45.2491 77.7097 45.82 77.8999C46.4233 78.1053 46.9709 78.4475 47.42 78.8999L46.81 79.8999C46.5363 79.4558 46.1204 79.1175 45.63 78.9399C45.1948 78.8017 44.7452 78.7145 44.29 78.6799C43.9466 78.6884 43.6077 78.7595 43.29 78.8899C42.9508 79.0133 42.6457 79.2155 42.4 79.4799C42.1568 79.7551 42.0281 80.1128 42.04 80.4799C42.0252 80.875 42.161 81.261 42.42 81.5598C42.7012 81.855 43.0421 82.0868 43.42 82.2398C43.81 82.4098 44.22 82.5699 44.64 82.7299C45.1791 82.8939 45.7042 83.1013 46.21 83.3498C46.6795 83.5717 47.093 83.8964 47.42 84.2999C47.7507 84.7544 47.9165 85.3083 47.89 85.8699C47.8998 86.4869 47.7518 87.0961 47.46 87.6399C47.1658 88.171 46.7202 88.6027 46.18 88.8798C45.4855 89.2248 44.7145 89.3866 43.94 89.3498Z" fill="#1D1D1B"/>
<path d="M54.63 89.2301L49.27 77.8501H50.8L55.63 88.5101L54.63 89.2301ZM52.1 94.5301L59.43 77.8501H60.75L53.47 94.5301H52.1Z" fill="#1D1D1B"/>
<path d="M75.5 89.35C74.4157 89.3702 73.3457 89.1009 72.4 88.57C71.519 88.0657 70.7902 87.3334 70.29 86.45C69.7787 85.5336 69.5167 84.4992 69.53 83.45C69.5161 82.3955 69.7928 81.3575 70.33 80.45C70.8597 79.5586 71.6062 78.8155 72.5 78.29C73.4084 77.7535 74.4452 77.4736 75.5 77.48C76.735 77.4454 77.9391 77.8693 78.88 78.67C79.8268 79.4849 80.5207 80.5536 80.88 81.75L71.05 85.55L70.65 84.55L79.65 81.04L79.37 81.44C79.0414 80.6659 78.5343 79.9806 77.89 79.44C77.2064 78.8797 76.3436 78.585 75.46 78.61C74.6398 78.5987 73.8328 78.8169 73.13 79.24C72.4332 79.6725 71.8611 80.2791 71.47 81C71.047 81.7352 70.8326 82.5719 70.85 83.42C70.8461 84.2436 71.0489 85.0551 71.44 85.78C71.8225 86.5038 72.3923 87.1117 73.09 87.54C73.8243 87.987 74.6706 88.2159 75.53 88.2C76.1367 88.2042 76.7382 88.0887 77.3 87.86C77.8457 87.6418 78.3549 87.3417 78.81 86.97L79.5 87.97C78.9378 88.3955 78.314 88.7327 77.65 88.97C76.9626 89.2271 76.2339 89.3559 75.5 89.35Z" fill="#1D1D1B"/>
<path d="M93.3 88.0002C92.7749 88.4318 92.1796 88.77 91.54 89.0002C90.7059 89.2893 89.8206 89.4012 88.9408 89.3289C88.0609 89.2566 87.2058 89.0016 86.43 88.5802C85.5447 88.0882 84.8087 87.3661 84.3 86.4902C83.7741 85.5789 83.5046 84.5423 83.52 83.4902C83.507 82.4345 83.7874 81.3959 84.33 80.4902C84.8555 79.6241 85.5917 78.9051 86.47 78.4002C87.3585 77.8919 88.3665 77.6296 89.39 77.6402C90.1315 77.6303 90.869 77.7487 91.57 77.9902C92.2139 78.2109 92.8108 78.5501 93.33 78.9902L92.61 79.9202C92.1909 79.5419 91.7152 79.2314 91.2 79.0002C90.6486 78.7858 90.0617 78.6773 89.47 78.6802C88.6551 78.6714 87.8543 78.8933 87.16 79.3202C86.4636 79.7346 85.8878 80.3242 85.49 81.0302C85.0742 81.7647 84.8603 82.5962 84.87 83.4402C84.864 84.2711 85.0779 85.0887 85.49 85.8102C85.8904 86.527 86.478 87.1215 87.19 87.5302C87.9188 87.9523 88.7479 88.17 89.59 88.1602C90.1383 88.1642 90.6831 88.0729 91.2 87.8902C91.6862 87.7162 92.1418 87.4665 92.55 87.1502L93.3 88.0002Z" fill="#1D1D1B"/>
<path d="M96.22 89.1202V67.2202H97.54V80.8502L97.45 80.3602C97.8723 79.5338 98.5164 78.8413 99.31 78.3602C100.19 77.8083 101.211 77.5234 102.25 77.5402C102.718 77.5182 103.185 77.59 103.625 77.7514C104.065 77.9129 104.468 78.1607 104.81 78.4802C105.134 78.7955 105.389 79.1738 105.561 79.5917C105.733 80.0096 105.818 80.4584 105.81 80.9102V89.1302H104.43V81.2802C104.433 80.609 104.187 79.9605 103.74 79.4602C103.487 79.2092 103.185 79.013 102.853 78.884C102.521 78.7549 102.166 78.6958 101.81 78.7102C101.07 78.7106 100.345 78.911 99.71 79.2902C99.0637 79.6664 98.5262 80.204 98.15 80.8502C97.7492 81.5166 97.5446 82.2827 97.56 83.0602V89.1202H96.22Z" fill="#1D1D1B"/>
<path d="M108.63 94.0002L104.82 90.0002C104.676 89.7446 104.61 89.4527 104.63 89.1602V86.5702C104.863 86.5539 105.097 86.5539 105.33 86.5702C105.48 86.5702 105.56 86.4602 105.57 86.6902V89.2602C105.854 89.6895 106.19 90.0824 106.57 90.4302L109.82 93.8102L109.06 94.3502C108.91 94.1902 108.81 94.1202 108.63 94.0002Z" fill="#1D1D1B" stroke="#1D1D1B" stroke-width="0.5" stroke-miterlimit="10"/>
<path d="M1 94.53L10.89 70H11.02L20.91 94.49H19.1L10.5 72.62L11.63 72L2.63 94.53H1ZM5.78 85.24H16.17L16.63 86.77H5.39L5.78 85.24Z" fill="#1D1D1B" stroke="#1D1D1B" stroke-width="0.5" stroke-miterlimit="10"/>
<path d="M57.1899 69.52H72.5199V71.07H65.6299V93H64.0199V71.07H57.1899V69.52Z" fill="#1D1D1B" stroke="#1D1D1B" stroke-width="0.5" stroke-miterlimit="10"/>
</svg>
