<svg width="1440" height="534" viewBox="0 0 1440 534" fill="none" xmlns="http://www.w3.org/2000/svg">
<path d="M1338.5 106C1383.51 82.5573 1439.5 0.5 1439.5 0.5V533.5H0V124C0 124 18.5747 114.794 32 112C51.1166 108.022 62.5761 110.004 82 112C103.679 114.228 115.338 118.792 136.5 124C183.882 135.662 207.235 158.751 256 160.5C289.309 161.694 307.609 153.892 340.5 148.5C389.4 140.484 415.503 126.346 465 124C509.235 121.904 533.853 130.009 578 133.5C662.099 140.151 709.418 141.633 793.5 148.5C846.059 152.792 875.369 163.794 928 160.5C978.797 157.321 1004.61 134.506 1055.5 133.5C1098.07 132.658 1120.92 148.995 1163.5 148.5C1202.79 148.043 1225.03 143.628 1263 133.5C1293.32 125.412 1310.67 120.495 1338.5 106Z" fill="#DEECCF"/>
</svg>
