<svg width="476" height="636" viewBox="0 0 476 636" fill="none" xmlns="http://www.w3.org/2000/svg">
<path d="M97.9898 404.842L102.12 416.197L108.344 430.401" stroke="white" stroke-width="8"/>
<path d="M87.0398 359.075L89.1622 370.97L92.8583 386.031" stroke="white" stroke-width="8"/>
<path d="M85.4415 306.876L85.0405 318.952L85.5194 334.453" stroke="white" stroke-width="8"/>
<path d="M180.292 529.696L189.707 537.269L202.389 546.194" stroke="white" stroke-width="8"/>
<path d="M147.217 496.222L155.195 505.297L166.158 516.265" stroke="white" stroke-width="8"/>
<path d="M118.808 452.399L124.721 462.937L133.161 475.947" stroke="white" stroke-width="8"/>
<path d="M315.422 594.441L327.394 596.079L342.862 597.192" stroke="white" stroke-width="8"/>
<path d="M269.827 582.799L281.341 586.465L296.389 590.214" stroke="white" stroke-width="8"/>
<path d="M222.898 559.885L233.396 565.868L247.333 572.668" stroke="white" stroke-width="8"/>
<path d="M463.382 581.119L474.583 576.587L488.557 569.861" stroke="white" stroke-width="8"/>
<path d="M418.035 593.693L429.847 591.148L444.767 586.918" stroke="white" stroke-width="8"/>
<path d="M365.925 597.149L378.008 597.12L393.482 596.089" stroke="white" stroke-width="8"/>
<path d="M91.6903 258.101L89.2502 269.935L87.0975 285.293" stroke="white" stroke-width="8"/>
<path d="M106.408 210.992L102.17 222.307L97.6719 237.148" stroke="white" stroke-width="8"/>
<path d="M129.575 166.882L123.361 177.245L116.254 191.028" stroke="white" stroke-width="8"/>
<path d="M160.025 126.856L151.799 135.706L141.989 147.717" stroke="white" stroke-width="8"/>
<path d="M195.59 96.7619L185.923 104.01L174.136 114.088" stroke="white" stroke-width="8"/>
<path d="M232.262 73.1252L221.777 79.129L208.839 87.6807" stroke="white" stroke-width="8"/>
<path d="M493.315 72.7132L482.646 67.0408L468.515 60.6523" stroke="white" stroke-width="8"/>
<path d="M445.591 52.0028L434.004 48.5762L418.881 45.1396" stroke="white" stroke-width="8"/>
<path d="M403.326 42.812L391.305 41.5916L375.808 41.0166" stroke="white" stroke-width="8"/>
<path d="M359.493 39.7948L347.435 40.5785L332.056 42.5732" stroke="white" stroke-width="8"/>
<path d="M315.88 44.0211L304.047 46.4682L289.093 50.5752" stroke="white" stroke-width="8"/>
<path d="M272.524 55.0948L261.209 59.3339L247.065 65.6934" stroke="white" stroke-width="8"/>
<circle cx="476.5" cy="59.5" r="37.5" fill="white"/>
<circle cx="489.5" cy="567.5" r="37.5" fill="white"/>
<circle cx="236" cy="80" r="80" fill="#C1DCAB"/>
<path d="M228.44 85.8808C241.386 85.8808 251.881 75.3862 251.881 62.4404C251.881 49.4946 241.386 39 228.44 39C215.495 39 205 49.4946 205 62.4404C205 75.3862 215.495 85.8808 228.44 85.8808Z" stroke="white" stroke-width="8" stroke-linecap="round" stroke-linejoin="round"/>
<path d="M257.741 91.7418L244.995 78.9961" stroke="white" stroke-width="8" stroke-linecap="round" stroke-linejoin="round"/>
<path d="M196.935 114H199.335V128H196.935V114ZM201.455 128H198.395V125.78H201.395C202.088 125.78 202.728 125.68 203.315 125.48C203.902 125.28 204.408 124.98 204.835 124.58C205.275 124.18 205.615 123.68 205.855 123.08C206.108 122.48 206.235 121.787 206.235 121C206.235 120.213 206.108 119.52 205.855 118.92C205.615 118.32 205.275 117.82 204.835 117.42C204.408 117.02 203.902 116.72 203.315 116.52C202.728 116.32 202.088 116.22 201.395 116.22H198.395V114H201.455C202.882 114 204.135 114.293 205.215 114.88C206.295 115.453 207.135 116.267 207.735 117.32C208.348 118.36 208.655 119.587 208.655 121C208.655 122.413 208.348 123.647 207.735 124.7C207.135 125.74 206.295 126.553 205.215 127.14C204.135 127.713 202.882 128 201.455 128ZM211.358 123.9V122.42H217.138C217.085 121.98 216.965 121.6 216.778 121.28C216.605 120.947 216.358 120.693 216.038 120.52C215.718 120.333 215.325 120.24 214.858 120.24C214.378 120.24 213.945 120.347 213.558 120.56C213.172 120.76 212.865 121.06 212.638 121.46C212.412 121.847 212.298 122.307 212.298 122.84L212.258 123.4C212.258 124.08 212.365 124.647 212.578 125.1C212.805 125.54 213.112 125.873 213.498 126.1C213.898 126.313 214.358 126.42 214.878 126.42C215.305 126.42 215.678 126.36 215.998 126.24C216.332 126.12 216.625 125.953 216.878 125.74C217.132 125.513 217.345 125.253 217.518 124.96L219.378 125.72C219.072 126.213 218.718 126.647 218.318 127.02C217.932 127.393 217.452 127.687 216.878 127.9C216.318 128.1 215.618 128.2 214.778 128.2C213.832 128.2 213.005 127.993 212.298 127.58C211.592 127.167 211.045 126.6 210.658 125.88C210.272 125.147 210.078 124.32 210.078 123.4C210.078 123.227 210.085 123.06 210.098 122.9C210.112 122.74 210.132 122.58 210.158 122.42C210.292 121.66 210.558 120.993 210.958 120.42C211.372 119.847 211.912 119.4 212.578 119.08C213.245 118.76 214.012 118.6 214.878 118.6C215.825 118.6 216.638 118.793 217.318 119.18C218.012 119.553 218.545 120.093 218.918 120.8C219.292 121.493 219.478 122.327 219.478 123.3C219.478 123.38 219.478 123.473 219.478 123.58C219.478 123.673 219.465 123.78 219.438 123.9H211.358ZM218.178 114.24L214.578 117.24L213.358 116.54L216.358 113.34L218.178 114.24ZM222.98 123.4C222.98 123.987 223.107 124.5 223.36 124.94C223.613 125.367 223.953 125.707 224.38 125.96C224.82 126.213 225.307 126.34 225.84 126.34C226.28 126.34 226.7 126.273 227.1 126.14C227.5 126.007 227.853 125.82 228.16 125.58C228.467 125.34 228.693 125.073 228.84 124.78V127.16C228.52 127.48 228.087 127.733 227.54 127.92C226.993 128.107 226.393 128.2 225.74 128.2C224.793 128.2 223.94 128 223.18 127.6C222.433 127.187 221.84 126.62 221.4 125.9C220.973 125.167 220.76 124.333 220.76 123.4C220.76 122.453 220.973 121.62 221.4 120.9C221.84 120.18 222.433 119.62 223.18 119.22C223.94 118.807 224.793 118.6 225.74 118.6C226.393 118.6 226.993 118.693 227.54 118.88C228.087 119.067 228.52 119.32 228.84 119.64V122.02C228.693 121.713 228.46 121.447 228.14 121.22C227.833 120.98 227.48 120.793 227.08 120.66C226.68 120.527 226.267 120.46 225.84 120.46C225.307 120.46 224.82 120.587 224.38 120.84C223.953 121.093 223.613 121.44 223.36 121.88C223.107 122.32 222.98 122.827 222.98 123.4ZM230.528 123.4C230.528 122.453 230.741 121.62 231.168 120.9C231.608 120.18 232.201 119.62 232.948 119.22C233.694 118.807 234.541 118.6 235.488 118.6C236.434 118.6 237.274 118.807 238.008 119.22C238.754 119.62 239.348 120.18 239.788 120.9C240.228 121.62 240.448 122.453 240.448 123.4C240.448 124.333 240.228 125.167 239.788 125.9C239.348 126.62 238.754 127.187 238.008 127.6C237.274 128 236.434 128.2 235.488 128.2C234.541 128.2 233.694 128 232.948 127.6C232.201 127.187 231.608 126.62 231.168 125.9C230.741 125.167 230.528 124.333 230.528 123.4ZM232.748 123.4C232.748 123.973 232.868 124.48 233.108 124.92C233.348 125.347 233.674 125.687 234.088 125.94C234.501 126.18 234.968 126.3 235.488 126.3C235.994 126.3 236.454 126.18 236.868 125.94C237.294 125.687 237.628 125.347 237.868 124.92C238.108 124.48 238.228 123.973 238.228 123.4C238.228 122.827 238.108 122.32 237.868 121.88C237.628 121.44 237.294 121.1 236.868 120.86C236.454 120.62 235.994 120.5 235.488 120.5C234.968 120.5 234.501 120.62 234.088 120.86C233.674 121.1 233.348 121.44 233.108 121.88C232.868 122.32 232.748 122.827 232.748 123.4ZM244.717 124.4C244.717 125.053 244.857 125.56 245.137 125.92C245.417 126.28 245.844 126.46 246.417 126.46C246.831 126.46 247.191 126.38 247.497 126.22C247.804 126.047 248.044 125.807 248.217 125.5C248.391 125.18 248.477 124.813 248.477 124.4V118.8H250.637V128H248.477V126.58C248.184 127.113 247.804 127.52 247.337 127.8C246.884 128.067 246.337 128.2 245.697 128.2C244.671 128.2 243.877 127.88 243.317 127.24C242.771 126.6 242.497 125.733 242.497 124.64V118.8H244.717V124.4ZM251.996 118.8H254.356L256.756 124.74L259.156 118.8H261.536L256.756 128.84L251.996 118.8ZM265.028 118.8V128H262.888V118.8H265.028ZM267.768 121.1C267.568 120.94 267.381 120.82 267.208 120.74C267.034 120.66 266.814 120.62 266.548 120.62C266.188 120.62 265.894 120.713 265.668 120.9C265.441 121.087 265.274 121.347 265.168 121.68C265.074 122 265.028 122.38 265.028 122.82L264.308 122.4C264.308 121.667 264.441 121.02 264.708 120.46C264.988 119.887 265.341 119.433 265.768 119.1C266.208 118.767 266.661 118.6 267.128 118.6C267.461 118.6 267.774 118.653 268.068 118.76C268.361 118.853 268.608 119.027 268.808 119.28L267.768 121.1ZM270.21 115.14C270.21 114.767 270.343 114.453 270.61 114.2C270.89 113.947 271.21 113.82 271.57 113.82C271.957 113.82 272.277 113.947 272.53 114.2C272.797 114.453 272.93 114.767 272.93 115.14C272.93 115.5 272.797 115.813 272.53 116.08C272.277 116.333 271.957 116.46 271.57 116.46C271.21 116.46 270.89 116.333 270.61 116.08C270.343 115.813 270.21 115.5 270.21 115.14ZM270.51 118.8H272.63V128H270.51V118.8ZM277.743 118.8V128H275.603V118.8H277.743ZM280.483 121.1C280.283 120.94 280.096 120.82 279.923 120.74C279.749 120.66 279.529 120.62 279.263 120.62C278.903 120.62 278.609 120.713 278.383 120.9C278.156 121.087 277.989 121.347 277.883 121.68C277.789 122 277.743 122.38 277.743 122.82L277.023 122.4C277.023 121.667 277.156 121.02 277.423 120.46C277.703 119.887 278.056 119.433 278.483 119.1C278.923 118.767 279.376 118.6 279.843 118.6C280.176 118.6 280.489 118.653 280.783 118.76C281.076 118.853 281.323 119.027 281.523 119.28L280.483 121.1Z" fill="white"/>
<circle cx="249" cy="556" r="80" fill="#C1DCAB"/>
<path d="M206.695 600.5C207.002 601.033 207.328 601.507 207.675 601.92C208.035 602.32 208.428 602.633 208.855 602.86C209.282 603.073 209.762 603.18 210.295 603.18C210.935 603.18 211.455 603.007 211.855 602.66C212.255 602.313 212.455 601.867 212.455 601.32C212.455 600.8 212.328 600.387 212.075 600.08C211.822 599.76 211.468 599.493 211.015 599.28C210.575 599.053 210.062 598.833 209.475 598.62C209.128 598.5 208.742 598.34 208.315 598.14C207.888 597.927 207.482 597.667 207.095 597.36C206.708 597.04 206.388 596.653 206.135 596.2C205.882 595.733 205.755 595.173 205.755 594.52C205.755 593.773 205.948 593.12 206.335 592.56C206.722 591.987 207.242 591.547 207.895 591.24C208.562 590.92 209.315 590.76 210.155 590.76C210.982 590.76 211.702 590.907 212.315 591.2C212.928 591.493 213.442 591.867 213.855 592.32C214.282 592.773 214.615 593.247 214.855 593.74L212.935 594.82C212.762 594.473 212.542 594.153 212.275 593.86C212.008 593.553 211.695 593.313 211.335 593.14C210.988 592.953 210.582 592.86 210.115 592.86C209.462 592.86 208.982 593.013 208.675 593.32C208.368 593.613 208.215 593.96 208.215 594.36C208.215 594.72 208.322 595.047 208.535 595.34C208.762 595.62 209.108 595.887 209.575 596.14C210.042 596.393 210.648 596.653 211.395 596.92C211.808 597.067 212.222 597.253 212.635 597.48C213.062 597.707 213.448 597.993 213.795 598.34C214.142 598.673 214.415 599.067 214.615 599.52C214.828 599.973 214.935 600.507 214.935 601.12C214.935 601.773 214.808 602.36 214.555 602.88C214.302 603.4 213.955 603.84 213.515 604.2C213.075 604.547 212.575 604.813 212.015 605C211.468 605.2 210.895 605.3 210.295 605.3C209.468 605.3 208.702 605.14 207.995 604.82C207.302 604.487 206.695 604.047 206.175 603.5C205.655 602.953 205.242 602.36 204.935 601.72L206.695 600.5ZM217.957 591H220.337L218.317 595.8H216.797L217.957 591ZM223.034 592.14C223.034 591.767 223.168 591.453 223.434 591.2C223.714 590.947 224.034 590.82 224.394 590.82C224.781 590.82 225.101 590.947 225.354 591.2C225.621 591.453 225.754 591.767 225.754 592.14C225.754 592.5 225.621 592.813 225.354 593.08C225.101 593.333 224.781 593.46 224.394 593.46C224.034 593.46 223.714 593.333 223.434 593.08C223.168 592.813 223.034 592.5 223.034 592.14ZM223.334 595.8H225.454V605H223.334V595.8ZM234.347 599.4C234.347 598.72 234.207 598.207 233.927 597.86C233.647 597.513 233.214 597.34 232.627 597.34C232.227 597.34 231.874 597.427 231.567 597.6C231.26 597.76 231.02 598 230.847 598.32C230.674 598.627 230.587 598.987 230.587 599.4V605H228.427V595.8H230.587V597.22C230.88 596.673 231.254 596.267 231.707 596C232.174 595.733 232.727 595.6 233.367 595.6C234.407 595.6 235.2 595.92 235.747 596.56C236.294 597.187 236.567 598.053 236.567 599.16V605H234.347V599.4ZM239.745 601.98C240.039 602.3 240.332 602.58 240.625 602.82C240.932 603.047 241.239 603.22 241.545 603.34C241.852 603.447 242.159 603.5 242.465 603.5C242.852 603.5 243.152 603.413 243.365 603.24C243.592 603.067 243.705 602.827 243.705 602.52C243.705 602.253 243.619 602.027 243.445 601.84C243.272 601.64 243.032 601.473 242.725 601.34C242.419 601.193 242.059 601.047 241.645 600.9C241.232 600.74 240.819 600.553 240.405 600.34C240.005 600.113 239.672 599.82 239.405 599.46C239.152 599.1 239.025 598.647 239.025 598.1C239.025 597.54 239.165 597.073 239.445 596.7C239.739 596.327 240.125 596.053 240.605 595.88C241.099 595.693 241.625 595.6 242.185 595.6C242.692 595.6 243.165 595.673 243.605 595.82C244.059 595.967 244.465 596.16 244.825 596.4C245.185 596.64 245.492 596.913 245.745 597.22L244.545 598.5C244.239 598.14 243.872 597.847 243.445 597.62C243.019 597.393 242.579 597.28 242.125 597.28C241.819 597.28 241.565 597.347 241.365 597.48C241.165 597.613 241.065 597.807 241.065 598.06C241.065 598.273 241.152 598.467 241.325 598.64C241.512 598.8 241.752 598.947 242.045 599.08C242.352 599.213 242.692 599.353 243.065 599.5C243.572 599.7 244.039 599.92 244.465 600.16C244.892 600.4 245.232 600.693 245.485 601.04C245.752 601.387 245.885 601.84 245.885 602.4C245.885 603.267 245.585 603.967 244.985 604.5C244.399 605.02 243.599 605.28 242.585 605.28C241.959 605.28 241.379 605.187 240.845 605C240.325 604.8 239.865 604.547 239.465 604.24C239.079 603.92 238.752 603.587 238.485 603.24L239.745 601.98ZM249.902 609.4H247.722V595.8H249.902V609.4ZM257.522 600.4C257.522 601.413 257.315 602.287 256.902 603.02C256.489 603.74 255.942 604.293 255.262 604.68C254.582 605.053 253.842 605.24 253.042 605.24C252.255 605.24 251.569 605.047 250.982 604.66C250.409 604.26 249.962 603.7 249.642 602.98C249.335 602.247 249.182 601.387 249.182 600.4C249.182 599.4 249.335 598.54 249.642 597.82C249.962 597.1 250.409 596.547 250.982 596.16C251.569 595.76 252.255 595.56 253.042 595.56C253.842 595.56 254.582 595.753 255.262 596.14C255.942 596.513 256.489 597.06 256.902 597.78C257.315 598.5 257.522 599.373 257.522 600.4ZM255.282 600.4C255.282 599.787 255.155 599.267 254.902 598.84C254.649 598.4 254.309 598.073 253.882 597.86C253.469 597.633 253.009 597.52 252.502 597.52C252.089 597.52 251.682 597.633 251.282 597.86C250.882 598.073 250.549 598.393 250.282 598.82C250.029 599.247 249.902 599.773 249.902 600.4C249.902 601.027 250.029 601.553 250.282 601.98C250.549 602.407 250.882 602.733 251.282 602.96C251.682 603.173 252.089 603.28 252.502 603.28C253.009 603.28 253.469 603.173 253.882 602.96C254.309 602.733 254.649 602.407 254.902 601.98C255.155 601.54 255.282 601.013 255.282 600.4ZM259.499 592.14C259.499 591.767 259.633 591.453 259.899 591.2C260.179 590.947 260.499 590.82 260.859 590.82C261.246 590.82 261.566 590.947 261.819 591.2C262.086 591.453 262.219 591.767 262.219 592.14C262.219 592.5 262.086 592.813 261.819 593.08C261.566 593.333 261.246 593.46 260.859 593.46C260.499 593.46 260.179 593.333 259.899 593.08C259.633 592.813 259.499 592.5 259.499 592.14ZM259.799 595.8H261.919V605H259.799V595.8ZM267.032 595.8V605H264.892V595.8H267.032ZM269.772 598.1C269.572 597.94 269.385 597.82 269.212 597.74C269.038 597.66 268.818 597.62 268.552 597.62C268.192 597.62 267.898 597.713 267.672 597.9C267.445 598.087 267.278 598.347 267.172 598.68C267.078 599 267.032 599.38 267.032 599.82L266.312 599.4C266.312 598.667 266.445 598.02 266.712 597.46C266.992 596.887 267.345 596.433 267.772 596.1C268.212 595.767 268.665 595.6 269.132 595.6C269.465 595.6 269.778 595.653 270.072 595.76C270.365 595.853 270.612 596.027 270.812 596.28L269.772 598.1ZM276.001 605.2C275.068 605.2 274.241 605 273.521 604.6C272.814 604.2 272.268 603.64 271.881 602.92C271.494 602.2 271.301 601.36 271.301 600.4C271.301 599.427 271.494 598.58 271.881 597.86C272.281 597.14 272.841 596.587 273.561 596.2C274.281 595.8 275.128 595.6 276.101 595.6C277.074 595.6 277.901 595.787 278.581 596.16C279.261 596.533 279.781 597.073 280.141 597.78C280.514 598.473 280.701 599.313 280.701 600.3C280.701 600.407 280.694 600.52 280.681 600.64C280.681 600.76 280.674 600.847 280.661 600.9H272.581V599.42H278.821L278.161 600.34C278.201 600.26 278.241 600.153 278.281 600.02C278.334 599.873 278.361 599.753 278.361 599.66C278.361 599.167 278.261 598.74 278.061 598.38C277.874 598.02 277.608 597.74 277.261 597.54C276.928 597.34 276.534 597.24 276.081 597.24C275.534 597.24 275.068 597.36 274.681 597.6C274.294 597.84 274.001 598.187 273.801 598.64C273.601 599.093 273.494 599.653 273.481 600.32C273.481 600.987 273.581 601.553 273.781 602.02C273.981 602.473 274.274 602.82 274.661 603.06C275.061 603.3 275.541 603.42 276.101 603.42C276.688 603.42 277.201 603.3 277.641 603.06C278.081 602.82 278.448 602.453 278.741 601.96L280.601 602.72C280.121 603.547 279.501 604.167 278.741 604.58C277.981 604.993 277.068 605.2 276.001 605.2ZM284.903 595.8V605H282.763V595.8H284.903ZM287.643 598.1C287.443 597.94 287.256 597.82 287.083 597.74C286.909 597.66 286.689 597.62 286.423 597.62C286.063 597.62 285.769 597.713 285.543 597.9C285.316 598.087 285.149 598.347 285.043 598.68C284.949 599 284.903 599.38 284.903 599.82L284.183 599.4C284.183 598.667 284.316 598.02 284.583 597.46C284.863 596.887 285.216 596.433 285.643 596.1C286.083 595.767 286.536 595.6 287.003 595.6C287.336 595.6 287.649 595.653 287.943 595.76C288.236 595.853 288.483 596.027 288.683 596.28L287.643 598.1Z" fill="white"/>
<path d="M257.912 570.562L257.912 570.562L265.901 564.791C267.353 563.743 267.688 561.707 266.693 560.316C264.22 556.302 264.397 551.27 264.677 546.459C264.726 545.611 264.719 544.758 264.654 543.905C264.388 540.427 263.172 537.088 261.137 534.254L261.136 534.253C255.02 525.785 243.158 523.873 234.69 529.989C226.221 536.106 224.31 547.97 230.425 556.436L230.426 556.436C232.475 559.26 235.263 561.465 238.482 562.81C239.299 563.152 240.135 563.435 240.985 563.658C245.592 564.867 250.367 566.268 253.365 569.834C253.872 570.53 254.633 570.998 255.484 571.135C256.337 571.273 257.21 571.067 257.912 570.562ZM255.683 568.038L255.678 568.031L255.672 568.025L250.245 561.557C249.902 561.148 249.364 560.958 248.841 561.059C245.841 561.635 242.74 561.345 239.899 560.222C237.059 559.099 234.597 557.19 232.803 554.719C230.322 551.275 229.308 546.989 229.984 542.799C230.659 538.61 232.969 534.859 236.406 532.37C239.849 529.89 244.136 528.877 248.325 529.553C252.514 530.228 256.264 532.538 258.753 535.975C260.535 538.455 261.573 541.393 261.747 544.442C261.92 547.492 261.221 550.528 259.732 553.195C259.47 553.659 259.481 554.23 259.761 554.684L264.244 561.942L264.249 561.949L264.254 561.957C264.361 562.104 264.327 562.308 264.183 562.412L256.194 568.183C256.066 568.275 255.856 568.275 255.683 568.038Z" fill="white" stroke="white" stroke-width="0.5"/>
<path d="M270.879 571.219L270.879 571.219C271.579 570.712 272.05 569.949 272.187 569.095C272.325 568.242 272.118 567.369 271.613 566.668L271.613 566.668L269.933 564.342C268.881 562.886 266.841 562.557 265.383 563.611L256.956 569.698C255.5 570.749 255.169 572.787 256.222 574.246L257.902 576.571L257.902 576.571C258.409 577.271 259.172 577.741 260.025 577.879C260.877 578.017 261.75 577.811 262.451 577.307L262.451 577.306L270.879 571.219ZM258.545 572.284C258.559 572.199 258.606 572.124 258.675 572.074L267.104 565.989C267.173 565.938 267.26 565.918 267.345 565.931C267.429 565.945 267.505 565.991 267.556 566.06C267.556 566.06 267.556 566.06 267.556 566.061L269.234 568.383C269.338 568.528 269.305 568.732 269.161 568.836L260.733 574.923C260.59 575.027 260.387 574.995 260.282 574.849L258.602 572.524C258.552 572.454 258.532 572.368 258.545 572.284ZM223.9 515.053C223.243 515.528 223.095 516.445 223.569 517.102L230.96 527.334C231.434 527.991 232.351 528.139 233.009 527.664C233.666 527.19 233.813 526.272 233.339 525.615L225.949 515.384C225.474 514.727 224.557 514.579 223.9 515.053ZM254.066 509.643C253.266 509.514 252.513 510.058 252.384 510.858L250.374 523.317C250.244 524.117 250.788 524.871 251.589 525C252.389 525.129 253.142 524.585 253.271 523.785L255.281 511.326C255.41 510.526 254.866 509.772 254.066 509.643ZM265.662 531.591C265.005 532.066 264.857 532.983 265.332 533.64C265.806 534.297 266.724 534.445 267.381 533.97L277.612 526.58C278.269 526.106 278.417 525.188 277.943 524.531C277.468 523.874 276.551 523.726 275.894 524.201L265.662 531.591ZM210.738 540.935C209.937 540.805 209.184 541.35 209.055 542.151C208.927 542.952 209.471 543.705 210.271 543.834L222.727 545.84C223.527 545.969 224.28 545.425 224.409 544.625C224.538 543.825 223.994 543.072 223.194 542.943L210.738 540.935ZM216.009 567.456C215.352 567.93 215.204 568.848 215.678 569.505C216.153 570.162 217.07 570.31 217.727 569.835L227.961 562.443C228.618 561.969 228.766 561.052 228.291 560.394C227.816 559.737 226.899 559.59 226.242 560.064L216.009 567.456Z" fill="white" stroke="white" stroke-width="0.5"/>
<circle cx="80" cy="321" r="80" fill="#F8B654"/>
<path d="M45.9742 363.84L50.0942 354H52.8142L45.9742 368.78L39.1342 354H41.8542L45.9742 363.84ZM51.9613 363.4C51.9613 362.453 52.1746 361.62 52.6012 360.9C53.0413 360.18 53.6346 359.62 54.3813 359.22C55.1279 358.807 55.9746 358.6 56.9213 358.6C57.8679 358.6 58.7079 358.807 59.4413 359.22C60.1879 359.62 60.7813 360.18 61.2213 360.9C61.6613 361.62 61.8813 362.453 61.8813 363.4C61.8813 364.333 61.6613 365.167 61.2213 365.9C60.7813 366.62 60.1879 367.187 59.4413 367.6C58.7079 368 57.8679 368.2 56.9213 368.2C55.9746 368.2 55.1279 368 54.3813 367.6C53.6346 367.187 53.0413 366.62 52.6012 365.9C52.1746 365.167 51.9613 364.333 51.9613 363.4ZM54.1813 363.4C54.1813 363.973 54.3013 364.48 54.5413 364.92C54.7813 365.347 55.1079 365.687 55.5213 365.94C55.9346 366.18 56.4013 366.3 56.9213 366.3C57.4279 366.3 57.8879 366.18 58.3013 365.94C58.7279 365.687 59.0613 365.347 59.3013 364.92C59.5413 364.48 59.6613 363.973 59.6613 363.4C59.6613 362.827 59.5413 362.32 59.3013 361.88C59.0613 361.44 58.7279 361.1 58.3013 360.86C57.8879 360.62 57.4279 360.5 56.9213 360.5C56.4013 360.5 55.9346 360.62 55.5213 360.86C55.1079 361.1 54.7813 361.44 54.5413 361.88C54.3013 362.32 54.1813 362.827 54.1813 363.4ZM65.2908 365.14C65.2908 365.447 65.3641 365.713 65.5108 365.94C65.6574 366.153 65.8574 366.313 66.1108 366.42C66.3774 366.527 66.6774 366.58 67.0108 366.58C67.4374 366.58 67.8241 366.493 68.1708 366.32C68.5308 366.147 68.8174 365.893 69.0308 365.56C69.2574 365.213 69.3708 364.813 69.3708 364.36L69.6908 365.56C69.6908 366.147 69.5174 366.64 69.1708 367.04C68.8374 367.427 68.4108 367.72 67.8908 367.92C67.3841 368.107 66.8641 368.2 66.3308 368.2C65.7574 368.2 65.2241 368.087 64.7308 367.86C64.2374 367.633 63.8441 367.3 63.5508 366.86C63.2574 366.42 63.1108 365.887 63.1108 365.26C63.1108 364.367 63.4241 363.66 64.0508 363.14C64.6774 362.607 65.5641 362.34 66.7108 362.34C67.3241 362.34 67.8508 362.407 68.2908 362.54C68.7441 362.673 69.1174 362.833 69.4108 363.02C69.7041 363.193 69.9108 363.353 70.0308 363.5V364.6C69.6174 364.307 69.1774 364.093 68.7108 363.96C68.2441 363.827 67.7508 363.76 67.2308 363.76C66.7774 363.76 66.4108 363.82 66.1308 363.94C65.8508 364.047 65.6374 364.2 65.4908 364.4C65.3574 364.6 65.2908 364.847 65.2908 365.14ZM64.6108 361.2L63.7308 359.68C64.1441 359.427 64.6774 359.18 65.3308 358.94C65.9974 358.7 66.7574 358.58 67.6108 358.58C68.3708 358.58 69.0374 358.693 69.6108 358.92C70.1974 359.147 70.6574 359.473 70.9908 359.9C71.3241 360.313 71.4908 360.827 71.4908 361.44V368H69.3708V361.86C69.3708 361.567 69.3174 361.327 69.2108 361.14C69.1174 360.953 68.9841 360.8 68.8108 360.68C68.6374 360.56 68.4308 360.473 68.1908 360.42C67.9508 360.367 67.6908 360.34 67.4108 360.34C66.9841 360.34 66.5774 360.393 66.1908 360.5C65.8174 360.593 65.4908 360.713 65.2108 360.86C64.9441 360.993 64.7441 361.107 64.6108 361.2ZM82.0513 358.8L76.0513 372.4H73.7513L76.1513 366.92L72.4512 358.8H74.9313L77.8713 366.08L76.8513 366.02L79.7313 358.8H82.0513ZM84.7048 365.14C84.7048 365.447 84.7782 365.713 84.9248 365.94C85.0715 366.153 85.2715 366.313 85.5248 366.42C85.7915 366.527 86.0915 366.58 86.4248 366.58C86.8515 366.58 87.2382 366.493 87.5848 366.32C87.9448 366.147 88.2315 365.893 88.4448 365.56C88.6715 365.213 88.7848 364.813 88.7848 364.36L89.1048 365.56C89.1048 366.147 88.9315 366.64 88.5848 367.04C88.2515 367.427 87.8248 367.72 87.3048 367.92C86.7982 368.107 86.2782 368.2 85.7448 368.2C85.1715 368.2 84.6382 368.087 84.1448 367.86C83.6515 367.633 83.2582 367.3 82.9648 366.86C82.6715 366.42 82.5248 365.887 82.5248 365.26C82.5248 364.367 82.8382 363.66 83.4648 363.14C84.0915 362.607 84.9782 362.34 86.1248 362.34C86.7382 362.34 87.2648 362.407 87.7048 362.54C88.1582 362.673 88.5315 362.833 88.8248 363.02C89.1182 363.193 89.3248 363.353 89.4448 363.5V364.6C89.0315 364.307 88.5915 364.093 88.1248 363.96C87.6582 363.827 87.1648 363.76 86.6448 363.76C86.1915 363.76 85.8248 363.82 85.5448 363.94C85.2648 364.047 85.0515 364.2 84.9048 364.4C84.7715 364.6 84.7048 364.847 84.7048 365.14ZM84.0248 361.2L83.1448 359.68C83.5582 359.427 84.0915 359.18 84.7448 358.94C85.4115 358.7 86.1715 358.58 87.0248 358.58C87.7848 358.58 88.4515 358.693 89.0248 358.92C89.6115 359.147 90.0715 359.473 90.4048 359.9C90.7382 360.313 90.9048 360.827 90.9048 361.44V368H88.7848V361.86C88.7848 361.567 88.7315 361.327 88.6248 361.14C88.5315 360.953 88.3982 360.8 88.2248 360.68C88.0515 360.56 87.8448 360.473 87.6048 360.42C87.3648 360.367 87.1048 360.34 86.8248 360.34C86.3982 360.34 85.9915 360.393 85.6048 360.5C85.2315 360.593 84.9048 360.713 84.6248 360.86C84.3582 360.993 84.1582 361.107 84.0248 361.2ZM92.903 368.62H95.043C95.0563 369.033 95.1696 369.407 95.383 369.74C95.6096 370.073 95.9163 370.333 96.303 370.52C96.6896 370.707 97.1363 370.8 97.643 370.8C98.0963 370.8 98.5296 370.693 98.943 370.48C99.3563 370.267 99.6896 369.94 99.943 369.5C100.21 369.06 100.343 368.493 100.343 367.8V358.8H102.463V367.8C102.463 368.907 102.236 369.82 101.783 370.54C101.343 371.26 100.763 371.793 100.043 372.14C99.323 372.5 98.543 372.68 97.703 372.68C96.703 372.68 95.8496 372.507 95.143 372.16C94.4363 371.827 93.8896 371.353 93.503 370.74C93.1296 370.127 92.9296 369.42 92.903 368.62ZM92.723 363.36C92.723 362.333 92.9296 361.473 93.343 360.78C93.7563 360.073 94.303 359.533 94.983 359.16C95.6763 358.787 96.4163 358.6 97.203 358.6C97.9763 358.6 98.6496 358.793 99.223 359.18C99.8096 359.553 100.27 360.093 100.603 360.8C100.95 361.507 101.123 362.36 101.123 363.36C101.123 364.347 100.95 365.193 100.603 365.9C100.27 366.607 99.8096 367.153 99.223 367.54C98.6496 367.913 97.9763 368.1 97.203 368.1C96.4163 368.1 95.6763 367.913 94.983 367.54C94.303 367.167 93.7563 366.627 93.343 365.92C92.9296 365.213 92.723 364.36 92.723 363.36ZM94.963 363.36C94.963 363.973 95.0896 364.493 95.343 364.92C95.5963 365.347 95.9296 365.673 96.343 365.9C96.7696 366.113 97.2296 366.22 97.723 366.22C98.1363 366.22 98.543 366.113 98.943 365.9C99.3563 365.687 99.6896 365.367 99.943 364.94C100.21 364.5 100.343 363.973 100.343 363.36C100.343 362.88 100.263 362.467 100.103 362.12C99.9563 361.76 99.7563 361.46 99.503 361.22C99.2496 360.967 98.963 360.78 98.643 360.66C98.3363 360.54 98.0296 360.48 97.723 360.48C97.2296 360.48 96.7696 360.593 96.343 360.82C95.9296 361.033 95.5963 361.353 95.343 361.78C95.0896 362.207 94.963 362.733 94.963 363.36ZM109.142 368.2C108.208 368.2 107.382 368 106.662 367.6C105.955 367.2 105.408 366.64 105.022 365.92C104.635 365.2 104.442 364.36 104.442 363.4C104.442 362.427 104.635 361.58 105.022 360.86C105.422 360.14 105.982 359.587 106.702 359.2C107.422 358.8 108.268 358.6 109.242 358.6C110.215 358.6 111.042 358.787 111.722 359.16C112.402 359.533 112.922 360.073 113.282 360.78C113.655 361.473 113.842 362.313 113.842 363.3C113.842 363.407 113.835 363.52 113.822 363.64C113.822 363.76 113.815 363.847 113.802 363.9H105.722V362.42H111.962L111.302 363.34C111.342 363.26 111.382 363.153 111.422 363.02C111.475 362.873 111.502 362.753 111.502 362.66C111.502 362.167 111.402 361.74 111.202 361.38C111.015 361.02 110.748 360.74 110.402 360.54C110.068 360.34 109.675 360.24 109.222 360.24C108.675 360.24 108.208 360.36 107.822 360.6C107.435 360.84 107.142 361.187 106.942 361.64C106.742 362.093 106.635 362.653 106.622 363.32C106.622 363.987 106.722 364.553 106.922 365.02C107.122 365.473 107.415 365.82 107.802 366.06C108.202 366.3 108.682 366.42 109.242 366.42C109.828 366.42 110.342 366.3 110.782 366.06C111.222 365.82 111.588 365.453 111.882 364.96L113.742 365.72C113.262 366.547 112.642 367.167 111.882 367.58C111.122 367.993 110.208 368.2 109.142 368.2ZM118.043 358.8V368H115.903V358.8H118.043ZM120.783 361.1C120.583 360.94 120.397 360.82 120.223 360.74C120.05 360.66 119.83 360.62 119.563 360.62C119.203 360.62 118.91 360.713 118.683 360.9C118.457 361.087 118.29 361.347 118.183 361.68C118.09 362 118.043 362.38 118.043 362.82L117.323 362.4C117.323 361.667 117.457 361.02 117.723 360.46C118.003 359.887 118.357 359.433 118.783 359.1C119.223 358.767 119.677 358.6 120.143 358.6C120.477 358.6 120.79 358.653 121.083 358.76C121.377 358.853 121.623 359.027 121.823 359.28L120.783 361.1Z" fill="white"/>
<path fill-rule="evenodd" clip-rule="evenodd" d="M84.7019 269.093C80.3395 270.353 77.5179 274.421 77.6165 278.76L76.2853 278.554C76.0479 278.517 75.8052 278.532 75.5743 278.599C75.3435 278.666 75.13 278.782 74.9487 278.94L58.143 293.565L36.1274 290.156C35.8534 290.114 35.5732 290.141 35.3126 290.235C35.052 290.33 34.8195 290.488 34.6363 290.697C34.4532 290.905 34.3255 291.156 34.2649 291.426C34.2044 291.697 34.2129 291.978 34.2898 292.244L47.1653 336.811C47.2525 337.114 47.4244 337.385 47.6605 337.592C47.8967 337.8 48.1873 337.936 48.4982 337.984L71.2711 341.51C71.5086 341.547 71.7513 341.532 71.9821 341.465C72.213 341.398 72.4265 341.282 72.6078 341.124L89.4136 326.5L111.429 329.909C112.621 330.093 113.602 328.979 113.267 327.821L100.392 283.254C100.304 282.952 100.132 282.681 99.8963 282.473C99.6601 282.265 99.3695 282.129 99.0586 282.081L96.7354 281.72L97.061 280.443C97.1305 280.136 97.1652 279.821 97.1815 279.505C97.3174 278.253 97.2073 276.987 96.8576 275.777C95.3634 270.605 89.8893 267.594 84.7019 269.093ZM85.9756 273.501C88.7687 272.695 91.6303 274.27 92.435 277.055C93.2395 279.84 91.6582 282.696 88.8652 283.503C86.0721 284.31 83.2111 282.737 82.4065 279.952C81.6018 277.167 83.1825 274.308 85.9756 273.501ZM77.3413 282.057L78.3318 282.211C78.9599 283.746 79.9704 285.095 81.2672 286.129L91.1057 295.577C92.3721 296.512 92.9174 296.108 93.3821 294.851L95.9143 284.932L97.5132 285.18L109.379 326.253L89.474 323.17L82.0627 298.054C82.3375 298.035 82.6111 298.015 82.8882 298.001L82.7588 295.366C82.2712 295.39 81.784 295.422 81.2975 295.463L77.3419 282.056L77.3413 282.057ZM75.5052 282.83L79.3034 295.704C78.6226 295.803 77.9467 295.934 77.278 296.096L77.9162 298.657C78.6134 298.483 79.3306 298.357 80.0574 298.256L87.5734 323.726L71.8314 337.426L59.763 296.53L75.5052 282.83ZM38.1779 293.813L57.7931 296.85L69.9256 337.963L50.0433 334.883L38.1779 293.813ZM74.5305 297.077C73.7027 297.486 72.89 298.024 72.1979 298.748C71.3693 299.611 70.7929 300.686 70.5313 301.854L73.1058 302.437C73.2626 301.739 73.6054 301.097 74.0979 300.578L74.101 300.574L74.104 300.571C74.5296 300.125 75.0811 299.748 75.6998 299.443L74.5305 297.077ZM85.47 295.312L85.4539 297.95C87.1765 297.961 88.9041 298.046 90.6356 298.178L90.8361 295.545C89.0577 295.41 87.2682 295.323 85.47 295.312ZM70.3744 304.891L70.3843 304.997L70.385 305.007C70.5872 306.893 71.1311 308.65 71.6872 310.308L74.1898 309.469C73.6501 307.86 73.1801 306.288 73.0121 304.733L73.0044 304.65L70.3744 304.891ZM75.063 311.925L72.5825 312.827C73.1856 314.487 73.7865 316.11 74.252 317.738L76.7901 317.011C76.2877 315.254 75.6629 313.574 75.063 311.925ZM74.8164 320.165C74.9212 320.789 74.987 321.407 74.9979 322.015L74.9975 322.019L74.9977 322.024C75.0204 322.935 74.8733 323.826 74.5294 324.591L76.9359 325.675C77.475 324.478 77.6665 323.198 77.6372 321.967L77.6373 321.963C77.6231 321.201 77.5409 320.452 77.4187 319.725L74.8164 320.165ZM54.1192 328.822L53.6351 331.417C55.436 331.754 57.2513 331.938 59.0525 332.03L59.1873 329.393C57.4755 329.306 55.7783 329.131 54.1192 328.822ZM61.7434 329.445L61.7751 332.085C63.5868 332.064 65.4179 331.934 67.2379 331.623L66.7925 329.021C65.1422 329.303 63.4503 329.425 61.7434 329.445ZM73.2977 326.301C72.2215 327.312 70.7656 327.992 69.203 328.464L69.9675 330.991C71.7582 330.45 73.6043 329.635 75.1051 328.224L73.2977 326.301Z" fill="white"/>
</svg>
