<svg width="40" height="21" viewBox="0 0 40 21" fill="none" xmlns="http://www.w3.org/2000/svg">
<path d="M14.15 12.5726H2.00001C1.43334 12.5726 0.958006 12.3723 0.574007 11.9716C0.190007 11.571 -0.00132641 11.0757 6.92042e-06 10.4859C6.92042e-06 9.89463 0.192007 9.39868 0.576007 8.99803C0.960007 8.59737 1.43467 8.39774 2.00001 8.39913H14.15L9.5 3.49529C9.13334 3.11272 8.94134 2.63416 8.924 2.05961C8.90667 1.48506 9.09867 0.989811 9.5 0.573854C9.86667 0.191285 10.3333 0 10.9 0C11.4667 0 11.9333 0.191285 12.3 0.573854L20.4 9.02516C20.8 9.4425 21 9.92941 21 10.4859C21 11.0423 20.8 11.5292 20.4 11.9466L12.3 20.3979C11.9333 20.7805 11.4747 20.9808 10.924 20.9989C10.3733 21.017 9.89867 20.8166 9.5 20.3979C9.13334 20.0153 8.95 19.5284 8.95 18.9372C8.95 18.3459 9.13334 17.859 9.5 17.4765L14.15 12.5726ZM24 4.22565C23.4333 4.22565 22.9587 4.02532 22.576 3.62467C22.1933 3.22402 22.0013 2.72876 22 2.13891C22 1.54767 22.192 1.05172 22.576 0.651064C22.96 0.25041 23.4347 0.0507776 24 0.0521687H38C38.5667 0.0521687 39.042 0.252496 39.426 0.65315C39.81 1.0538 40.0013 1.54906 40 2.13891C40 2.73015 39.808 3.2261 39.424 3.62676C39.04 4.02741 38.5653 4.22704 38 4.22565H24ZM24 20.9196C23.4333 20.9196 22.9587 20.7193 22.576 20.3186C22.1933 19.9179 22.0013 19.4227 22 18.8328C22 18.2416 22.192 17.7456 22.576 17.345C22.96 16.9443 23.4347 16.7447 24 16.7461H38C38.5667 16.7461 39.042 16.9464 39.426 17.3471C39.81 17.7477 40.0013 18.243 40 18.8328C40 19.4241 39.808 19.92 39.424 20.3207C39.04 20.7213 38.5653 20.921 38 20.9196H24ZM30 12.5726C29.4333 12.5726 28.958 12.3723 28.574 11.9716C28.19 11.571 27.9987 11.0757 28 10.4859C28 9.89463 28.192 9.39868 28.576 8.99803C28.96 8.59737 29.4347 8.39774 30 8.39913H38C38.5667 8.39913 39.042 8.59946 39.426 9.00012C39.81 9.40077 40.0013 9.89602 40 10.4859C40 11.0771 39.808 11.5731 39.424 11.9737C39.04 12.3744 38.5653 12.574 38 12.5726H30Z" fill="#162641"/>
</svg>
