<svg width="38" height="40" viewBox="0 0 38 40" fill="none" xmlns="http://www.w3.org/2000/svg">
<path d="M20.8438 15.7043C20.8435 14.7601 20.583 13.8342 20.091 13.0283C19.599 12.2224 18.8945 11.5676 18.0548 11.1358C17.2151 10.704 16.2727 10.5119 15.3309 10.5805C14.3892 10.6491 13.4846 10.9758 12.7164 11.5248C11.9481 12.0737 11.346 12.8237 10.976 13.6924C10.606 14.5611 10.4824 15.515 10.6189 16.4493C10.7554 17.3836 11.1467 18.2622 11.7497 18.9888C12.3528 19.7154 13.1443 20.2617 14.0375 20.568" stroke="#162641" stroke-width="4" stroke-linecap="round" stroke-linejoin="round"/>
<path d="M15.2935 33.6409C14.5331 33.5502 13.8252 33.2063 13.284 32.6644L6.01341 25.3955C4.41636 23.7982 3.23885 21.8309 2.58563 19.6687C1.93241 17.5065 1.82372 15.2163 2.26925 13.0019C2.71477 10.7876 3.70069 8.71763 5.1393 6.97627C6.57791 5.23491 8.42461 3.87611 10.5151 3.02074C12.6056 2.16536 14.8752 1.83994 17.1218 2.07341C19.3685 2.30689 21.5226 3.09202 23.3926 4.35897C25.2625 5.62592 26.7904 7.3354 27.8402 9.33536C28.89 11.3353 29.4292 13.5637 29.4099 15.8224" stroke="#162641" stroke-width="4" stroke-linecap="round" stroke-linejoin="round"/>
<path d="M27.6971 37.5814L34.6496 30.5329C35.076 30.1051 35.4151 29.5932 35.647 29.0276C35.879 28.4619 35.9989 27.8539 35.9999 27.2396C36.0009 26.6252 35.8828 26.0168 35.6527 25.4504C35.4225 24.884 35.085 24.371 34.66 23.9417C33.7928 23.0645 32.6286 22.5724 31.4156 22.5699C30.2026 22.5675 29.0366 23.0551 28.1661 23.9288L27.7012 24.401L27.2384 23.9288C26.3713 23.0523 25.2075 22.5605 23.995 22.5581C22.7825 22.5557 21.617 23.0429 20.7466 23.9159C20.3201 24.3436 19.9808 24.8554 19.7487 25.4209C19.5166 25.9865 19.3964 26.5944 19.3953 27.2088C19.3941 27.8232 19.512 28.4316 19.7419 28.9981C19.9719 29.5646 20.3093 30.0777 20.7341 30.5072L27.6971 37.5814Z" stroke="#162641" stroke-width="4" stroke-linecap="round" stroke-linejoin="round"/>
</svg>
