<svg width="54" height="56" viewBox="0 0 54 56" fill="none" xmlns="http://www.w3.org/2000/svg">
<path d="M29.6029 22.3471C29.6024 21.0141 29.2347 19.707 28.5401 18.5692C27.8455 17.4315 26.8509 16.5071 25.6654 15.8974C24.48 15.2878 23.1495 15.0166 21.82 15.1134C20.4905 15.2103 19.2134 15.6715 18.1288 16.4465C17.0443 17.2215 16.1942 18.2804 15.6718 19.5068C15.1495 20.7332 14.9751 22.0798 15.1678 23.3988C15.3605 24.7178 15.9128 25.9583 16.7642 26.984C17.6155 28.0097 18.733 28.7811 19.994 29.2134" stroke="#162641" stroke-width="5" stroke-linecap="round" stroke-linejoin="round"/>
<path d="M21.7674 47.6695C20.6937 47.5415 19.6944 47.0559 18.9304 46.2909L8.66599 36.0289C6.41133 33.7739 4.74896 30.9966 3.82677 27.944C2.90457 24.8915 2.75114 21.6583 3.38011 18.5321C4.00909 15.406 5.40097 12.4837 7.43195 10.0253C9.46293 7.56693 12.07 5.64863 15.0214 4.44104C17.9727 3.23346 21.1767 2.77403 24.3485 3.10364C27.5202 3.43325 30.5613 4.54167 33.2013 6.33031C35.8412 8.11894 37.9982 10.5323 39.4802 13.3558C40.9623 16.1793 41.7236 19.3253 41.6963 22.514" stroke="#162641" stroke-width="5" stroke-linecap="round" stroke-linejoin="round"/>
<path d="M39.2783 53.2327L49.0937 43.282C49.6956 42.678 50.1744 41.9553 50.5018 41.1568C50.8292 40.3582 50.9986 39.4999 51 38.6325C51.0013 37.7652 50.8346 36.9063 50.5097 36.1066C50.1849 35.307 49.7083 34.5828 49.1083 33.9767C47.884 32.7384 46.2405 32.0436 44.528 32.0402C42.8155 32.0368 41.1694 32.7251 39.9405 33.9585L39.2842 34.6251L38.6308 33.9585C37.4066 32.7211 35.7637 32.0268 34.0519 32.0235C32.3401 32.0201 30.6946 32.7078 29.4659 33.9403C28.8638 34.5442 28.3847 35.2666 28.0571 36.0651C27.7294 36.8635 27.5598 37.7218 27.5581 38.5892C27.5565 39.4565 27.7229 40.3155 28.0475 41.1152C28.3722 41.915 28.8485 42.6394 29.4483 43.2457L39.2783 53.2327Z" fill="#162641" stroke="#162641" stroke-width="5" stroke-linecap="round" stroke-linejoin="round"/>
</svg>
