<svg width="325" height="57" viewBox="0 0 325 57" fill="none" xmlns="http://www.w3.org/2000/svg">
<g clip-path="url(#clip0_159_103)">
<path d="M83.4357 38.1786C81.3082 37.1957 79.5324 35.6386 78.3299 33.7016C77.0823 31.6307 76.4557 29.2742 76.5182 26.8882C76.4423 24.4958 77.0343 22.1269 78.2339 20.0226C79.4007 18.0838 81.1631 16.5307 83.2847 15.5718C85.7239 14.4777 88.3984 13.9413 91.0944 14.0055C93.7561 13.9149 96.4029 14.4201 98.8217 15.4804C100.823 16.4078 102.476 17.8978 103.557 19.7485C104.704 21.8311 105.266 24.1599 105.19 26.5097V27.6583C105.203 27.975 105.166 28.2918 105.08 28.5981H81.322V24.095H97.3394L95.3081 26.575C95.5116 26.2835 95.6732 25.9675 95.7884 25.6352C95.9094 25.3344 95.9789 25.0171 95.9943 24.6954C96.0169 23.7302 95.8007 22.7734 95.363 21.9022C94.9844 21.1427 94.3779 20.5069 93.6198 20.0749C92.8171 19.629 91.9003 19.4031 90.9709 19.4222C89.8357 19.3869 88.7145 19.6682 87.7454 20.2315C86.8381 20.823 86.1586 21.68 85.8102 22.6723C85.3321 23.9952 85.0909 25.385 85.0965 26.7838C85.0604 28.1176 85.2886 29.446 85.769 30.6995C86.1846 31.6798 86.9084 32.514 87.8415 33.0881C88.8322 33.6635 89.975 33.9579 91.1356 33.9365C92.4746 33.9745 93.8032 33.7012 95.0061 33.1403C96.0896 32.589 96.9813 31.7501 97.5727 30.7256L105.19 32.5008C103.968 34.7989 102.057 36.7018 99.7001 37.9697C97.0951 39.2501 94.1902 39.8789 91.2591 39.7971C88.5534 39.8534 85.8723 39.2987 83.4357 38.1786Z" fill="#162641"/>
<path d="M115.374 32.7089C116.266 33.2454 117.219 33.6833 118.215 34.0141C118.913 34.224 119.639 34.3383 120.37 34.3535C121.054 34.4082 121.735 34.2173 122.278 33.8183C122.482 33.6427 122.643 33.4266 122.75 33.1853C122.857 32.944 122.907 32.6833 122.896 32.4217C122.91 31.9233 122.734 31.4368 122.402 31.0512C121.907 30.5805 121.319 30.2078 120.672 29.9548C119.602 29.5104 118.502 29.1354 117.378 28.8323C116.183 28.3893 115.026 27.8569 113.919 27.2399C112.811 26.6484 111.869 25.811 111.174 24.7991C110.406 23.628 110.033 22.2619 110.104 20.8834C110.059 19.5115 110.509 18.1664 111.38 17.0721C112.271 15.9965 113.459 15.1783 114.812 14.7096C116.41 14.1472 118.104 13.8728 119.808 13.9003C121.223 13.8937 122.634 14.056 124.008 14.3833C125.276 14.7019 126.508 15.1391 127.686 15.6885C128.823 16.221 129.907 16.8501 130.925 17.5681L127.878 22.789C126.776 21.8145 125.521 21.0087 124.159 20.4004C122.966 19.8225 121.654 19.5017 120.315 19.4607C119.692 19.4178 119.07 19.569 118.545 19.8914C118.353 20.0148 118.197 20.1824 118.091 20.3787C117.985 20.575 117.934 20.7935 117.941 21.0139C117.947 21.2688 118.015 21.519 118.139 21.7452C118.262 21.9715 118.439 22.1678 118.655 22.3191C119.271 22.7519 119.957 23.0869 120.686 23.3111L123.925 24.4597C125.214 24.9586 126.458 25.5566 127.645 26.2479C128.731 26.8121 129.669 27.6018 130.39 28.5582C131.139 29.6538 131.504 30.9469 131.433 32.252C131.518 33.3692 131.331 34.4899 130.886 35.5269C130.441 36.5639 129.749 37.489 128.866 38.2301C126.791 39.6817 124.245 40.3932 121.674 40.2401C119.915 40.2592 118.16 40.0529 116.459 39.6267C114.918 39.2405 113.43 38.6841 112.025 37.969C110.698 37.2961 109.435 36.5143 108.251 35.6326L111.806 30.2681C112.925 31.1714 114.118 31.9876 115.374 32.7089Z" fill="#162641"/>
<path d="M145.803 5.96484V39.2355H137.568V5.96484H145.803ZM150.429 14.5403V21.2493H133.052V14.5403H150.429Z" fill="#162641"/>
<path d="M162.617 14.5408V39.236H154.382V14.5408H162.617ZM154.999 2.12788C155.968 1.32514 157.215 0.892606 158.499 0.914005C159.794 0.879647 161.055 1.31342 162.026 2.12788C162.488 2.51868 162.851 3.00316 163.088 3.54543C163.326 4.08769 163.432 4.67385 163.399 5.26047C163.427 5.85226 163.318 6.44265 163.081 6.99045C162.844 7.53825 162.484 8.03028 162.026 8.43221C161.059 9.25601 159.797 9.69522 158.499 9.65914C157.212 9.682 155.963 9.24408 154.999 8.43221C154.518 8.03516 154.136 7.5407 153.882 6.98509C153.628 6.42948 153.508 5.82682 153.531 5.22131C153.516 4.63394 153.64 4.05091 153.894 3.51541C154.148 2.97992 154.526 2.50569 154.999 2.12788Z" fill="#162641"/>
<path d="M185.62 20.8841C185.276 20.4738 184.83 20.1516 184.322 19.9465C183.814 19.7414 183.26 19.6599 182.71 19.7094C181.884 19.6945 181.067 19.8786 180.336 20.2445C179.664 20.6073 179.116 21.1466 178.758 21.7978C178.367 22.566 178.174 23.4116 178.195 24.2647V39.2358H169.617V14.5406H178.195V18.2736C178.898 16.9709 179.961 15.8746 181.269 15.1019C182.742 14.3147 184.413 13.9265 186.101 13.9794C189.331 13.9794 191.678 14.8017 193.142 16.4463C194.724 18.4319 195.508 20.8901 195.351 23.3771V39.2358H186.485V24.1994C186.546 23.0375 186.245 21.8843 185.62 20.8841Z" fill="#162641"/>
<path d="M242.182 5.96484V39.2355H233.947V5.96484H242.182ZM246.807 14.5403V21.2493H229.431V14.5403H246.807Z" fill="#162641"/>
<path d="M258.995 14.5401V39.2354H250.76V14.5401H258.995ZM251.378 2.12728C252.364 1.34587 253.608 0.917969 254.891 0.917969C256.175 0.917969 257.419 1.34587 258.405 2.12728C258.861 2.52212 259.22 3.0073 259.457 3.54857C259.694 4.08984 259.804 4.67402 259.778 5.25986C259.802 5.85134 259.693 6.44093 259.456 6.98834C259.219 7.53574 258.861 8.02805 258.405 8.43161C257.419 9.21301 256.175 9.64092 254.891 9.64092C253.608 9.64092 252.364 9.21301 251.378 8.43161C250.893 8.037 250.51 7.54298 250.255 6.98678C250.001 6.43057 249.883 5.82671 249.909 5.22071C249.894 4.63334 250.019 4.0503 250.273 3.51481C250.527 2.97932 250.905 2.50509 251.378 2.12728Z" fill="#162641"/>
<path d="M266.38 20.0748C267.67 18.1336 269.505 16.5739 271.677 15.5717C274.047 14.4677 276.657 13.9131 279.295 13.9532C281.915 13.9129 284.508 14.4677 286.858 15.5717C289.027 16.5844 290.863 18.1416 292.169 20.0748C293.497 22.1192 294.174 24.4857 294.118 26.8882C294.168 29.2736 293.491 31.6217 292.169 33.6494C290.863 35.5826 289.027 37.1397 286.858 38.1525C284.5 39.2605 281.897 39.8155 279.268 39.771C276.63 39.8111 274.019 39.2565 271.65 38.1525C269.477 37.1503 267.642 35.5906 266.352 33.6494C265.045 31.6169 264.378 29.2703 264.431 26.8882C264.381 24.4864 265.057 22.1216 266.38 20.0748ZM274.052 30.1905C274.579 31.0684 275.342 31.7979 276.262 32.305C277.18 32.8178 278.23 33.0797 279.295 33.062C280.355 33.0733 281.398 32.8118 282.315 32.305C283.243 31.8089 284.008 31.0767 284.524 30.1905C285.087 29.1738 285.366 28.0367 285.334 26.8882C285.364 25.7315 285.085 24.5865 284.524 23.5598C284.01 22.6624 283.245 21.9173 282.315 21.4062C281.395 20.9093 280.353 20.6526 279.295 20.6622C278.232 20.6465 277.184 20.9035 276.262 21.4062C275.34 21.9284 274.578 22.6709 274.052 23.5598C273.466 24.5787 273.177 25.7277 273.215 26.8882C273.178 28.0403 273.467 29.1807 274.052 30.1905Z" fill="#162641"/>
<path d="M315.269 20.8835C314.925 20.4723 314.479 20.1494 313.971 19.9442C313.463 19.7391 312.909 19.6581 312.359 19.7088C311.537 19.6939 310.725 19.878 309.998 20.244C309.32 20.5993 308.77 21.1405 308.42 21.7972C308.023 22.5634 307.83 23.4104 307.857 24.2641V39.2353H299.279V14.5401H307.857V18.2731C308.553 16.9649 309.617 15.8667 310.932 15.1013C312.398 14.312 314.065 13.9236 315.749 13.9788C318.988 13.9788 321.34 14.8011 322.804 16.4457C324.382 18.4331 325.16 20.8912 325 23.3766V39.2353H316.147V24.1989C316.211 23.035 315.905 21.8798 315.269 20.8835Z" fill="#162641"/>
<path d="M213.908 6.81348L201.308 38.3743L214.004 33.0489L226.727 38.296L213.908 6.81348Z" stroke="#162641" stroke-miterlimit="10"/>
<path d="M213.908 6.81348L213.977 26.9795" stroke="#162641" stroke-miterlimit="10"/>
<path d="M212.933 38.374C214.169 40.8931 213.894 47.08 213.702 47.7718C212.577 51.557 207.237 54.298 200.553 53.7106" stroke="#162641" stroke-miterlimit="10"/>
<path d="M193.855 52.5624C189.881 51.5871 185.799 51.0614 181.695 50.9961C176.934 50.9112 172.184 51.4381 167.572 52.5624" stroke="#162641" stroke-miterlimit="10"/>
<path d="M161.656 54.7415C157.514 55.962 153.182 56.4919 148.85 56.3078C144.682 56.1241 140.577 55.277 136.703 53.8018" stroke="#162641" stroke-miterlimit="10"/>
<path d="M131.46 52.5616C127.491 51.5861 123.413 51.0603 119.314 50.9953C114.553 50.9096 109.802 51.4365 105.19 52.5616" stroke="#162641" stroke-miterlimit="10"/>
<path d="M99.7826 53.515C95.6409 54.7354 91.3085 55.2654 86.9769 55.0813C82.8091 54.8975 78.7032 54.0504 74.8301 52.5752" stroke="#162641" stroke-miterlimit="10"/>
<path d="M71.4399 51.7656C67.4682 50.8007 63.3917 50.2794 59.2931 50.2124C54.5336 50.1306 49.784 50.653 45.1698 51.7656" stroke="#162641" stroke-miterlimit="10"/>
<path d="M41.7522 53.3841C32.6387 56.0729 28.3152 54.9112 28.9466 54.9374C24.7743 54.7639 20.6629 53.921 16.786 52.4443" stroke="#162641" stroke-miterlimit="10"/>
<path d="M14.1919 50.9827C12.3191 49.9233 10.5546 48.6998 8.92142 47.328C6.86263 45.6834 5.49011 39.4182 4.61169 38.374" stroke="#162641" stroke-miterlimit="10"/>
<path d="M2.8823 1.30469H35.8229L15.9487 32.9569H33.6543V41.219H0L19.5585 9.89319H2.8823V1.30469Z" fill="#162641"/>
<path d="M58.3048 39.9404C54.1802 40.0385 50.0907 39.1972 46.3776 37.4865C43.125 35.9421 40.4124 33.5349 38.5679 30.5557C36.6684 27.3262 35.72 23.6692 35.8229 19.9701C35.7116 16.2619 36.6603 12.5944 38.5679 9.35849C40.4097 6.38372 43.1237 3.98421 46.3776 2.45375C50.0907 0.743078 54.1802 -0.0982773 58.3048 -0.000109539H66.5399V8.56229H58.6754C57.1047 8.56009 55.5405 8.75316 54.0225 9.1366C52.5736 9.4915 51.2212 10.1368 50.0559 11.0292C48.8548 11.965 47.9124 13.1659 47.3109 14.5273C46.5722 16.2579 46.2216 18.1162 46.2815 19.9832C46.2215 21.8459 46.5721 23.6999 47.3109 25.426C47.9134 26.7906 48.8554 27.9955 50.0559 28.9371C51.222 29.8256 52.5745 30.4665 54.0225 30.8167C55.5405 31.2001 57.1047 31.3932 58.6754 31.391H66.5948V39.9404H58.3048ZM73.3065 -0.000109539V39.9404H62.8616V-0.000109539H73.3065Z" fill="#162641"/>
</g>
<defs>
<clipPath id="clip0_159_103">
<rect width="325" height="57" fill="white"/>
</clipPath>
</defs>
</svg>
